<svg width="126" height="24" viewBox="0 0 126 24" fill="none" xmlns="http://www.w3.org/2000/svg">
  <path
    d="M16.24 7.76L14.436 13.171C14.3378 13.4656 14.1724 13.7333 13.9528 13.9528C13.7333 14.1724 13.4656 14.3378 13.171 14.436L7.75999 16.24L9.56399 10.829C9.66218 10.5344 9.8276 10.2667 10.0472 10.0472C10.2667 9.82761 10.5344 9.66218 10.829 9.564L16.24 7.76Z"
    stroke="#E11D48" stroke-width="2" />
  <path
    d="M12 22C17.5228 22 22 17.5228 22 12C22 6.47715 17.5228 2 12 2C6.47715 2 2 6.47715 2 12C2 17.5228 6.47715 22 12 22Z"
    stroke="#E11D48" stroke-width="2" />
  <path
    d="M24.4119 4.45455H27.8565L31.1733 10.7188H31.3153L34.6321 4.45455H38.0767L32.7713 13.858V19H29.7173V13.858L24.4119 4.45455ZM40.701 19.206C40.005 19.206 39.3847 19.0852 38.8402 18.8438C38.2957 18.5975 37.8648 18.2353 37.5476 17.7571C37.2351 17.2741 37.0788 16.6728 37.0788 15.9531C37.0788 15.3471 37.1901 14.8381 37.4126 14.4261C37.6352 14.0142 37.9382 13.6828 38.3217 13.4318C38.7053 13.1809 39.1409 12.9915 39.6286 12.8636C40.121 12.7358 40.6371 12.6458 41.1768 12.5938C41.8113 12.5275 42.3227 12.4659 42.7109 12.4091C43.0992 12.3475 43.3809 12.2576 43.5561 12.1392C43.7313 12.0208 43.8189 11.8456 43.8189 11.6136V11.571C43.8189 11.1212 43.6768 10.7732 43.3928 10.527C43.1134 10.2808 42.7157 10.1577 42.1996 10.1577C41.6551 10.1577 41.2218 10.2784 40.8999 10.5199C40.5779 10.7566 40.3648 11.0549 40.2607 11.4148L37.4624 11.1875C37.6044 10.5246 37.8838 9.9517 38.3004 9.46875C38.7171 8.98106 39.2545 8.60701 39.9126 8.34659C40.5755 8.08144 41.3426 7.94886 42.2138 7.94886C42.8198 7.94886 43.3999 8.01989 43.9538 8.16193C44.5125 8.30398 45.0073 8.52415 45.4382 8.82244C45.8738 9.12074 46.2171 9.50426 46.468 9.97301C46.719 10.437 46.8445 10.9934 46.8445 11.642V19H43.9751V17.4872H43.8899C43.7147 17.8281 43.4804 18.1288 43.1868 18.3892C42.8932 18.6449 42.5405 18.8461 42.1286 18.9929C41.7166 19.1349 41.2408 19.206 40.701 19.206ZM41.5675 17.1179C42.0125 17.1179 42.4055 17.0303 42.7464 16.8551C43.0874 16.6752 43.3549 16.4337 43.549 16.1307C43.7431 15.8277 43.8402 15.4844 43.8402 15.1009V13.9432C43.7455 14.0047 43.6153 14.0616 43.4496 14.1136C43.2886 14.161 43.1063 14.206 42.9027 14.2486C42.6991 14.2865 42.4955 14.322 42.2919 14.3551C42.0883 14.3835 41.9036 14.4096 41.7379 14.4332C41.3828 14.4853 41.0727 14.5682 40.8075 14.6818C40.5424 14.7955 40.3364 14.9493 40.1896 15.1435C40.0429 15.3329 39.9695 15.5696 39.9695 15.8537C39.9695 16.2656 40.1186 16.5805 40.4169 16.7983C40.7199 17.0114 41.1035 17.1179 41.5675 17.1179ZM54.9943 8.09091V10.3636H48.4247V8.09091H54.9943ZM49.9162 5.47727H52.9418V15.6477C52.9418 15.9271 52.9844 16.1449 53.0696 16.3011C53.1548 16.4527 53.2732 16.5592 53.4247 16.6207C53.581 16.6823 53.7609 16.7131 53.9645 16.7131C54.1065 16.7131 54.2486 16.7012 54.3906 16.6776C54.5327 16.6491 54.6416 16.6278 54.7173 16.6136L55.1932 18.8651C55.0417 18.9124 54.8286 18.9669 54.554 19.0284C54.2794 19.0947 53.9455 19.1349 53.5526 19.1491C52.8234 19.1776 52.1842 19.0805 51.6349 18.858C51.0904 18.6354 50.6667 18.2898 50.3636 17.821C50.0606 17.3523 49.9115 16.7604 49.9162 16.0455V5.47727ZM56.9652 19V8.09091H59.8984V9.99432H60.0121C60.2109 9.31723 60.5447 8.80587 61.0135 8.46023C61.4822 8.10985 62.022 7.93466 62.6328 7.93466C62.7843 7.93466 62.9477 7.94413 63.1229 7.96307C63.2981 7.98201 63.4519 8.00805 63.5845 8.04119V10.7259C63.4425 10.6832 63.246 10.6454 62.995 10.6122C62.7441 10.5791 62.5144 10.5625 62.3061 10.5625C61.861 10.5625 61.4633 10.6596 61.1129 10.8537C60.7673 11.0431 60.4927 11.3082 60.2891 11.6491C60.0902 11.9901 59.9908 12.383 59.9908 12.8281V19H56.9652ZM67.9471 19.206C67.2511 19.206 66.6308 19.0852 66.0863 18.8438C65.5418 18.5975 65.1109 18.2353 64.7937 17.7571C64.4812 17.2741 64.3249 16.6728 64.3249 15.9531C64.3249 15.3471 64.4362 14.8381 64.6587 14.4261C64.8813 14.0142 65.1843 13.6828 65.5678 13.4318C65.9513 13.1809 66.387 12.9915 66.8746 12.8636C67.3671 12.7358 67.8832 12.6458 68.4229 12.5938C69.0574 12.5275 69.5688 12.4659 69.957 12.4091C70.3453 12.3475 70.627 12.2576 70.8022 12.1392C70.9774 12.0208 71.065 11.8456 71.065 11.6136V11.571C71.065 11.1212 70.9229 10.7732 70.6388 10.527C70.3595 10.2808 69.9618 10.1577 69.4457 10.1577C68.9012 10.1577 68.4679 10.2784 68.146 10.5199C67.824 10.7566 67.6109 11.0549 67.5067 11.4148L64.7085 11.1875C64.8505 10.5246 65.1299 9.9517 65.5465 9.46875C65.9632 8.98106 66.5006 8.60701 67.1587 8.34659C67.8216 8.08144 68.5887 7.94886 69.4599 7.94886C70.0659 7.94886 70.646 8.01989 71.1999 8.16193C71.7586 8.30398 72.2534 8.52415 72.6843 8.82244C73.1199 9.12074 73.4632 9.50426 73.7141 9.97301C73.9651 10.437 74.0906 10.9934 74.0906 11.642V19H71.2212V17.4872H71.136C70.9608 17.8281 70.7264 18.1288 70.4329 18.3892C70.1393 18.6449 69.7866 18.8461 69.3746 18.9929C68.9627 19.1349 68.4869 19.206 67.9471 19.206ZM68.8136 17.1179C69.2586 17.1179 69.6516 17.0303 69.9925 16.8551C70.3335 16.6752 70.601 16.4337 70.7951 16.1307C70.9892 15.8277 71.0863 15.4844 71.0863 15.1009V13.9432C70.9916 14.0047 70.8614 14.0616 70.6957 14.1136C70.5347 14.161 70.3524 14.206 70.1488 14.2486C69.9452 14.2865 69.7416 14.322 69.538 14.3551C69.3344 14.3835 69.1497 14.4096 68.984 14.4332C68.6289 14.4853 68.3188 14.5682 68.0536 14.6818C67.7885 14.7955 67.5825 14.9493 67.4357 15.1435C67.2889 15.3329 67.2156 15.5696 67.2156 15.8537C67.2156 16.2656 67.3647 16.5805 67.663 16.7983C67.966 17.0114 68.3496 17.1179 68.8136 17.1179Z"
    fill="currentColor" />
  <path
    d="M84.3853 8.63778C84.3285 8.06487 84.0846 7.61979 83.6538 7.30256C83.2229 6.98532 82.6381 6.8267 81.8995 6.8267C81.3976 6.8267 80.9738 6.89773 80.6282 7.03977C80.2826 7.17708 80.0174 7.36884 79.8327 7.61506C79.6528 7.86127 79.5629 8.14062 79.5629 8.45312C79.5534 8.71354 79.6078 8.94081 79.7262 9.13494C79.8493 9.32907 80.0174 9.49716 80.2305 9.6392C80.4435 9.77651 80.6897 9.89725 80.9691 10.0014C81.2485 10.1009 81.5468 10.1861 81.864 10.2571L83.1708 10.5696C83.8053 10.7116 84.3877 10.901 84.918 11.1378C85.4483 11.3745 85.9076 11.6657 86.2958 12.0114C86.6841 12.357 86.9847 12.7642 87.1978 13.233C87.4156 13.7017 87.5269 14.2391 87.5316 14.8452C87.5269 15.7353 87.2996 16.5071 86.8498 17.1605C86.4047 17.8092 85.7608 18.3134 84.918 18.6733C84.0799 19.0284 83.069 19.206 81.8853 19.206C80.7111 19.206 79.6883 19.026 78.8171 18.6662C77.9506 18.3063 77.2736 17.7737 76.7859 17.0682C76.3029 16.358 76.0496 15.4796 76.0259 14.4332H79.0018C79.0349 14.9209 79.1746 15.3281 79.4208 15.6548C79.6718 15.9768 80.0056 16.2206 80.4222 16.3864C80.8436 16.5473 81.3195 16.6278 81.8498 16.6278C82.3706 16.6278 82.8228 16.5521 83.2063 16.4006C83.5946 16.2491 83.8952 16.0384 84.1083 15.7685C84.3214 15.4986 84.4279 15.1884 84.4279 14.8381C84.4279 14.5114 84.3308 14.2367 84.1367 14.0142C83.9473 13.7917 83.668 13.6023 83.2987 13.446C82.9341 13.2898 82.4866 13.1477 81.9563 13.0199L80.3725 12.6222C79.1462 12.3239 78.1779 11.8575 77.4677 11.223C76.7575 10.5885 76.4047 9.7339 76.4094 8.65909C76.4047 7.77841 76.6391 7.009 77.1126 6.35085C77.5908 5.69271 78.2466 5.17898 79.0799 4.80966C79.9132 4.44034 80.8602 4.25568 81.9208 4.25568C83.0004 4.25568 83.9426 4.44034 84.7475 4.80966C85.5572 5.17898 86.1869 5.69271 86.6367 6.35085C87.0865 7.009 87.3185 7.77131 87.3327 8.63778H84.3853ZM92.6541 19.206C91.9581 19.206 91.3378 19.0852 90.7933 18.8438C90.2488 18.5975 89.8179 18.2353 89.5007 17.7571C89.1882 17.2741 89.032 16.6728 89.032 15.9531C89.032 15.3471 89.1432 14.8381 89.3658 14.4261C89.5883 14.0142 89.8913 13.6828 90.2749 13.4318C90.6584 13.1809 91.094 12.9915 91.5817 12.8636C92.0741 12.7358 92.5902 12.6458 93.13 12.5938C93.7644 12.5275 94.2758 12.4659 94.6641 12.4091C95.0523 12.3475 95.334 12.2576 95.5092 12.1392C95.6844 12.0208 95.772 11.8456 95.772 11.6136V11.571C95.772 11.1212 95.63 10.7732 95.3459 10.527C95.0665 10.2808 94.6688 10.1577 94.1527 10.1577C93.6082 10.1577 93.175 10.2784 92.853 10.5199C92.531 10.7566 92.3179 11.0549 92.2138 11.4148L89.4155 11.1875C89.5575 10.5246 89.8369 9.9517 90.2536 9.46875C90.6702 8.98106 91.2076 8.60701 91.8658 8.34659C92.5286 8.08144 93.2957 7.94886 94.1669 7.94886C94.773 7.94886 95.353 8.01989 95.907 8.16193C96.4657 8.30398 96.9605 8.52415 97.3913 8.82244C97.8269 9.12074 98.1702 9.50426 98.4212 9.97301C98.6721 10.437 98.7976 10.9934 98.7976 11.642V19H95.9283V17.4872H95.843C95.6679 17.8281 95.4335 18.1288 95.1399 18.3892C94.8464 18.6449 94.4936 18.8461 94.0817 18.9929C93.6697 19.1349 93.1939 19.206 92.6541 19.206ZM93.5206 17.1179C93.9657 17.1179 94.3587 17.0303 94.6996 16.8551C95.0405 16.6752 95.308 16.4337 95.5021 16.1307C95.6963 15.8277 95.7933 15.4844 95.7933 15.1009V13.9432C95.6986 14.0047 95.5684 14.0616 95.4027 14.1136C95.2417 14.161 95.0594 14.206 94.8558 14.2486C94.6522 14.2865 94.4486 14.322 94.245 14.3551C94.0414 14.3835 93.8568 14.4096 93.6911 14.4332C93.3359 14.4853 93.0258 14.5682 92.7607 14.6818C92.4955 14.7955 92.2895 14.9493 92.1428 15.1435C91.996 15.3329 91.9226 15.5696 91.9226 15.8537C91.9226 16.2656 92.0717 16.5805 92.37 16.7983C92.6731 17.0114 93.0566 17.1179 93.5206 17.1179ZM106.947 8.09091V10.3636H100.378V8.09091H106.947ZM101.869 5.47727H104.895V15.6477C104.895 15.9271 104.938 16.1449 105.023 16.3011C105.108 16.4527 105.226 16.5592 105.378 16.6207C105.534 16.6823 105.714 16.7131 105.918 16.7131C106.06 16.7131 106.202 16.7012 106.344 16.6776C106.486 16.6491 106.595 16.6278 106.67 16.6136L107.146 18.8651C106.995 18.9124 106.782 18.9669 106.507 19.0284C106.232 19.0947 105.899 19.1349 105.506 19.1491C104.777 19.1776 104.137 19.0805 103.588 18.858C103.044 18.6354 102.62 18.2898 102.317 17.821C102.014 17.3523 101.865 16.7604 101.869 16.0455V5.47727ZM112.178 12.6932V19H109.153V4.45455H112.093V10.0156H112.221C112.467 9.37169 112.865 8.86742 113.414 8.50284C113.963 8.13352 114.652 7.94886 115.481 7.94886C116.238 7.94886 116.899 8.11458 117.462 8.44602C118.031 8.77273 118.471 9.24384 118.783 9.85938C119.101 10.4702 119.257 11.2017 119.252 12.054V19H116.227V12.5938C116.231 11.9214 116.061 11.3982 115.715 11.0241C115.374 10.6501 114.896 10.4631 114.281 10.4631C113.869 10.4631 113.504 10.5507 113.187 10.7259C112.874 10.901 112.628 11.1567 112.448 11.4929C112.273 11.8243 112.183 12.2244 112.178 12.6932ZM121.633 19V8.09091H124.659V19H121.633ZM123.153 6.68466C122.703 6.68466 122.317 6.53551 121.995 6.23722C121.678 5.93419 121.52 5.57197 121.52 5.15057C121.52 4.7339 121.678 4.37642 121.995 4.07812C122.317 3.77509 122.703 3.62358 123.153 3.62358C123.603 3.62358 123.986 3.77509 124.304 4.07812C124.626 4.37642 124.787 4.7339 124.787 5.15057C124.787 5.57197 124.626 5.93419 124.304 6.23722C123.986 6.53551 123.603 6.68466 123.153 6.68466Z"
    fill="#E11D48" />
</svg>